<?xml version="1.0" encoding="utf-8"?>
<!-- Generator: Adobe Illustrator 22.0.0, SVG Export Plug-In . SVG Version: 6.00 Build 0)  -->
<svg version="1.1" id="Layer_1" xmlns="http://www.w3.org/2000/svg" xmlns:xlink="http://www.w3.org/1999/xlink" x="0px" y="0px"
	 viewBox="0 0 210.3 26.2" style="enable-background:new 0 0 210.3 26.2;" xml:space="preserve">
<style type="text/css">
	.st0{clip-path:url(#SVGID_2_);fill:url(#SVGID_3_);}
	.st1{clip-path:url(#SVGID_5_);fill:url(#SVGID_6_);}
	.st2{clip-path:url(#SVGID_8_);fill:#878787;}
</style>
<g>
	<defs>
		<path id="SVGID_1_" d="M39.3,0c-4.2,0-7.5,2-7.5,6.3c0,2.8,1.2,5.1,4.3,6.5c1.8,0.8,13.3,5.6,13.3,5.6c2,0.8,1.5,3.3-0.9,3.3H33
			c-0.4,0-0.8,0.4-0.8,0.9v2c0,0.5,0.4,0.9,0.8,0.9h18.1c4.2,0,7.5-2.1,7.5-6.3c0-2.8-1.2-5.1-4.3-6.5C52.5,12,41,7.2,41,7.2
			c-2.1-0.8-1.6-3.3,0.9-3.3h15.5c0.4,0,0.8-0.4,0.8-0.9v-2c0-0.5-0.4-0.9-0.8-0.9H39.3z"/>
	</defs>
	<clipPath id="SVGID_2_">
		<use xlink:href="#SVGID_1_"  style="overflow:visible;"/>
	</clipPath>
	
		<linearGradient id="SVGID_3_" gradientUnits="userSpaceOnUse" x1="0" y1="26.2444" x2="1" y2="26.2444" gradientTransform="matrix(27.0186 20.4619 20.4619 -27.0186 -506.6064 710.6461)">
		<stop  offset="0" style="stop-color:#00B1EB"/>
		<stop  offset="0.1679" style="stop-color:#00AEE9"/>
		<stop  offset="0.3876" style="stop-color:#00A5E3"/>
		<stop  offset="0.6361" style="stop-color:#0098D8"/>
		<stop  offset="0.9038" style="stop-color:#0084C8"/>
		<stop  offset="1" style="stop-color:#007BC2"/>
	</linearGradient>
	<polygon class="st0" points="41.6,-12.9 70.9,9.3 48.8,38.4 19.5,16.2 	"/>
</g>
<g>
	<defs>
		<path id="SVGID_4_" d="M0.8,0C0.4,0,0,0.4,0,0.9v2c0,0.5,0.4,0.9,0.8,0.9h10.8v20.8c0,0.5,0.4,0.9,0.8,0.9h6.7
			c0.5,0,0.8-0.4,0.8-0.9V3.9h10.8c0.4,0,0.8-0.4,0.8-0.9v-2c0-0.5-0.4-0.9-0.8-0.9H0.8z"/>
	</defs>
	<clipPath id="SVGID_5_">
		<use xlink:href="#SVGID_4_"  style="overflow:visible;"/>
	</clipPath>
	
		<linearGradient id="SVGID_6_" gradientUnits="userSpaceOnUse" x1="-3.480462e-06" y1="26.0988" x2="1" y2="26.0988" gradientTransform="matrix(19.9753 20.4619 20.4619 -19.9753 -532.3379 519.6779)">
		<stop  offset="0" style="stop-color:#FFCC00"/>
		<stop  offset="5.618000e-03" style="stop-color:#FFCC00"/>
		<stop  offset="1" style="stop-color:#EF7D00"/>
	</linearGradient>
	<polygon class="st1" points="16.2,-15.8 44.4,13.1 15.4,41.4 -12.8,12.5 	"/>
</g>
<g>
	<defs>
		<rect id="SVGID_7_" y="0" width="210.3" height="26.2"/>
	</defs>
	<clipPath id="SVGID_8_">
		<use xlink:href="#SVGID_7_"  style="overflow:visible;"/>
	</clipPath>
	<path class="st2" d="M115.2,9.7h-11.1V8.2h13.8v13.8h-2.7V9.7z M112.9,15.1h-2.7v8.5h-2.3v-8.5h-2.7v8.5h-2.4v1.5h16.5v-1.5h-6.5
		V15.1z"/>
	<path class="st2" d="M210.3,11.7v1.5h-2.4v7.5h-2.7v-4c-1.1,0.2-3,0.4-4.9,0.4c-2.8,0-4.6-0.3-5.3-0.5c0,0,0,0,0,0c0,0,0,0,0,0l0,0
		c-0.9-0.2-1.4-0.8-1.4-1.5V8.2h8.9v1.5h-6.2l0,5.5c0.4,0.1,1.4,0.3,4,0.3c1.9,0,3.9-0.2,5-0.4V7.7h2.7v3.9H210.3z M198.1,23.9V19
		h-2.7l0,4.6c0,0-0.1,1.2,1.5,1.5c0.7,0.2,2.4,0.5,5.3,0.5c2.9,0,5.8-0.5,5.8-0.5v-1.5c-0.2,0.1-3.1,0.5-5.9,0.5
		C199.4,24.1,198.4,24,198.1,23.9"/>
	<path class="st2" d="M154.4,11.6h2.6v1.5h-2.6v7.5h-2.7V7.7h2.7V11.6z M144.6,23.9V19h-2.7v4.6c0,0-0.1,1.2,1.5,1.5
		c0.7,0.2,2.4,0.5,5.3,0.5c2.9,0,5.8-0.6,5.8-0.6v-1.5c-0.2,0.1-3.1,0.5-5.9,0.5C146,24.1,145,24,144.6,23.9 M144.3,17.9
		c-2.8,0-5-2.3-5-5.1c0-2.8,2.2-5.1,5-5.1c2.8,0,5,2.3,5,5.1C149.3,15.6,147.1,17.9,144.3,17.9 M144.3,16.4c1.3,0,2.3-1.6,2.3-3.6
		c0-2-1-3.6-2.3-3.6c-1.3,0-2.3,1.6-2.3,3.6C142,14.8,143,16.4,144.3,16.4"/>
	<path class="st2" d="M129.3,17.9c-3.7,0-6.7,1.9-6.7,4.2c0,2.3,3,4.2,6.7,4.2c3.7,0,6.7-1.9,6.7-4.2C136,19.8,133,17.9,129.3,17.9
		 M129.3,24.8c-2.1,0-3.8-1.2-3.8-2.7c0-1.5,1.7-2.7,3.8-2.7c2.1,0,3.8,1.2,3.8,2.7C133.1,23.5,131.4,24.8,129.3,24.8 M130.7,15.8h7
		v1.5H121v-1.5h7v-0.8c-2.2-0.1-3.5-0.3-4.2-0.4c-1.8-0.4-1.7-1.5-1.7-1.5V8.2l14.3,0v1.5h-11.6v1.1h11.6v1.5h-11.6v1
		c0.8,0.1,1.9,0.3,4.9,0.3c3.2,0,6.5-0.4,6.8-0.5v1.5c0,0-2.8,0.5-5.8,0.5V15.8z"/>
	<path class="st2" d="M189.8,15.3h1.9v1.5H175v-1.5h5.7v-2.9h2.7v2.9h3.8V9.7h-10.5V8.2h13.2V15.3z M190,22.1c0,2.3-3,4.2-6.7,4.2
		c-3.7,0-6.7-1.9-6.7-4.2s3-4.2,6.7-4.2C187.1,17.9,190,19.7,190,22.1 M187.2,22.1c0-1.5-1.7-2.7-3.8-2.7c-2.1,0-3.8,1.2-3.8,2.7
		c0,1.5,1.7,2.7,3.8,2.7C185.5,24.7,187.2,23.5,187.2,22.1"/>
	<path class="st2" d="M170.2,13.1h-2.5v-1.5h2.5V7.7h2.7v12.9h-2.7V13.1z M163,23.9V19h-2.7l0,4.6c0,0-0.1,1.2,1.5,1.5
		c0.7,0.2,2.4,0.5,5.3,0.5c2.9,0,5.8-0.6,5.8-0.6v-1.5c-0.2,0.1-3.1,0.5-5.9,0.5C164.4,24.1,163.4,24,163,23.9 M162.8,14.2
		c1,1.5,2.8,2.7,4.2,3.5l1.1-1.3c-2.4-1.6-3.8-3.5-3.8-6.2V9.7h3.3V8.2h-9.4v1.5h3.3v0.4c0,2.8-1.4,4.6-3.8,6.2l1.1,1.3
		C160,16.9,161.8,15.6,162.8,14.2"/>
	<path class="st2" d="M81.1,11.6h2.6v1.5h-2.6v7.5h-2.7V7.7h2.7V11.6z M71.3,23.9V19h-2.7v4.6c0,0-0.1,1.2,1.5,1.5
		c0.7,0.2,2.4,0.5,5.3,0.5c2.9,0,5.8-0.5,5.8-0.5v-1.5c-0.2,0.1-3.1,0.5-5.9,0.5C72.7,24.1,71.7,24,71.3,23.9 M75.7,13.6
		c0-1.2-0.5-2.2-1.4-3h1.4V9.1h-3.2V7.7h-3v1.4h-3.3v1.5h1.4c-0.8,0.8-1.4,1.8-1.4,3c0,2.3,2.1,4.2,4.7,4.2
		C73.6,17.8,75.7,15.9,75.7,13.6 M68.8,13.5c0-1.6,1-2.8,2.2-2.8c1.2,0,2.2,1.3,2.2,2.8c0,1.6-1,2.8-2.2,2.8
		C69.8,16.3,68.8,15,68.8,13.5"/>
	<polygon class="st2" points="100.8,16.8 93.6,16.8 93.6,19 99.1,19 99.1,26.2 96.3,26.2 96.3,20.6 85.4,20.6 85.4,19 90.9,19 
		90.9,16.8 83.7,16.8 83.7,15.3 96.2,15.3 96.2,9.7 85.7,9.7 85.7,8.2 98.9,8.2 98.9,15.3 100.8,15.3 	"/>
</g>
</svg>
